<svg xmlns="http://www.w3.org/2000/svg" width="24" height="24" viewBox="0 0 24 24">
    <path fill="#000" fill-rule="nonzero" d="M8.844 15.653c.809-.856 1.924-1.386 3.156-1.386 1.232 0 2.348.53 3.156 1.386L12 19l-3.156-3.347zm-1.456-1.545C8.57 12.857 10.2 12.082 12 12.082c1.8 0 3.432.775 4.612 2.026l1.941-2.06C16.877 10.27 14.56 9.17 12 9.17c-2.56 0-4.877 1.1-6.553 2.88l1.941 2.058zM3.99 10.504C6.04 8.33 8.873 6.986 12 6.986s5.96 1.344 8.01 3.518L22 8.394C19.44 5.678 15.906 4 12 4 8.094 4 4.56 5.68 2 8.393l1.99 2.111z"/>
</svg>
