<svg xmlns="http://www.w3.org/2000/svg" height="512pt" version="1.1" viewBox="0 0 512 512" width="512pt">
<g id="surface1">
<path d="M 120 107 C 120 98.710938 126.710938 92 135 92 C 143.277344 92 150 85.277344 150 77 C 150 68.710938 156.710938 62 165 62 L 287 62 C 295.289062 62 302 68.710938 302 77 C 302 85.277344 308.722656 92 317 92 C 325.289062 92 332 98.710938 332 107 L 332 183.738281 C 343.058594 186.085938 353.261719 190.769531 362 197.382812 L 362 15 C 362 6.714844 355.285156 0 347 0 L 105 0 C 96.714844 0 90 6.714844 90 15 L 90 182 L 120 182 Z M 120 107 " style=" stroke:none;fill-rule:nonzero;fill:rgb(0%,0%,0%);fill-opacity:1;" />
<path d="M 274.5625 92 L 177.4375 92 C 172.910156 104.773438 162.773438 114.910156 150 119.4375 L 150 182 L 302 182 L 302 119.4375 C 289.226562 114.910156 279.089844 104.773438 274.5625 92 Z M 227 152.027344 C 218.714844 152.027344 212 145.3125 212 137.027344 C 212 128.742188 218.714844 122.027344 227 122.027344 C 235.285156 122.027344 242 128.742188 242 137.027344 C 242 145.3125 235.285156 152.027344 227 152.027344 Z M 227 152.027344 " style=" stroke:none;fill-rule:nonzero;fill:rgb(0%,0%,0%);fill-opacity:1;" />
<path d="M 512 242 C 512 225.429688 498.570312 212 482 212 L 452 212 L 452 167 C 452 142.148438 431.851562 122 407 122 L 392 122 L 392 272 L 482 272 C 498.570312 272 512 258.570312 512 242 Z M 512 242 " style=" stroke:none;fill-rule:nonzero;fill:rgb(0%,0%,0%);fill-opacity:1;" />
<path d="M 392 482 L 407 482 C 431.851562 482 452 461.851562 452 437 L 452 422 L 392 422 Z M 392 482 " style=" stroke:none;fill-rule:nonzero;fill:rgb(0%,0%,0%);fill-opacity:1;" />
<path d="M 512 293.65625 C 503.140625 298.824219 492.976562 302 482 302 L 317 302 C 292.148438 302 272 322.148438 272 347 C 272 371.851562 292.148438 392 317 392 L 467 392 C 491.851562 392 512 371.851562 512 347 Z M 316.972656 362 C 308.6875 362 301.972656 355.285156 301.972656 347 C 301.972656 338.714844 308.6875 332 316.972656 332 C 325.257812 332 331.972656 338.714844 331.972656 347 C 331.972656 355.285156 325.257812 362 316.972656 362 Z M 316.972656 362 " style=" stroke:none;fill-rule:nonzero;fill:rgb(0%,0%,0%);fill-opacity:1;" />
<path d="M 30 182 L 60 182 L 60 122 L 30 122 C 13.429688 122 0 135.429688 0 152 C 0 168.570312 13.429688 182 30 182 Z M 30 182 " style=" stroke:none;fill-rule:nonzero;fill:rgb(0%,0%,0%);fill-opacity:1;" />
<path d="M 75 512 L 317 512 C 341.8125 512 362 491.8125 362 467 L 362 422 L 317 422 C 275.648438 422 242 388.351562 242 347 C 242 305.648438 275.648438 272 317 272 L 362 272 L 362 257 C 362 232.1875 341.8125 212 317 212 L 30 212 C 19.023438 212 8.859375 208.824219 0 203.65625 L 0 437 C 0 478.351562 33.648438 512 75 512 Z M 75 512 " style=" stroke:none;fill-rule:nonzero;fill:rgb(0%,0%,0%);fill-opacity:1;" />
</g>
</svg>