<svg xmlns="http://www.w3.org/2000/svg" width="16" height="16" viewBox="0 0 16 16">
    <path fill="#7a7a7a" fill-rule="evenodd" d="M13 14H3.479l7.359-3.974a.5.5 0 0 0 .263-.44V5.914H13V14zM2 5.914h8.101v3.374L2 13.662V5.914zm8.101-1H3.478l6.623-3.576v3.576zm3.399 0h-2.399V.5a.501.501 0 0 0-.738-.44L1.262 4.974c-.012.006-.018.021-.03.029a.487.487 0 0 0-.133.127c-.013.018-.025.034-.036.054a.482.482 0 0 0-.063.23V14.5c0 .082.024.156.06.225.009.019.023.034.035.051a.464.464 0 0 0 .119.123c.012.008.017.023.03.031.008.005.018.003.026.007.07.037.146.063.23.063h12a.5.5 0 0 0 .5-.5V5.414a.5.5 0 0 0-.5-.5z"/>
</svg>
